<svg
    version="1.0"
    fill="currentColor"
    xmlns="http://www.w3.org/2000/svg"
    viewBox="0 0 800 757"
>
    <g>
        <path d="m190 47-4-11v-6" />
        <path
            d="m133 0-17 13c-5 3-14 3-18 7-6 6-3 20-9 25-4 2-11-2-15 0-9 4-15 21-24 22-2 1-5-1-6-3-3-3-2-10-5-12-2-1-5 0-7 1-3 3-1 10-4 13s-9 5-13 4c-3-1-6-6-8-9V50l-4-4-3-2c-2-5 1-12 2-17 1-3 4-6 4-9 0-2-3-5-5-7l-4-1h-8" />
        <path
            d="m221 104 8-6 10-5c6-7 9-21 12-30 2-6 6-15 6-21V32c-2-5-9-9-12-13-2-2-7-5-7-9-1-4 4-12 4-12" />
        <path d="M532 136s6-13 7-19c3-9 5-20 6-29l4-27c2-8 6-18 10-26l13-23 12-18" />
    </g>
    <g>
        <path
            d="m493-11-25 2-2 14-4 9-1 7-9 22-8 21h0l-2 2-1 1 1 1h0l-1 1v1l-2 8-1 3-2 1v2l-2 2v2l-1 2-1 3-1 2v2l-1 2h-1l-1 2v1 1h1v1l-1 1h0v2l-3-1h-1l-1 1v4 1l-1 1h0v2 1 1l-1 2v1h0l-1 1-1 3-1 1-6 12h-2v3l2 1-3 1h0 0v1l-1 1-1 3 3 1-3 13v1 0l-2 2-2 5h-1v1 1l-1 1-1 2v1l-1 2-2 3h0v1h-1l-1 1v1h1l-1 1v-1l-2 2 1 1h0l-1 1-1 1 3 1-1 1-2-2-1 2h1v2h-1l-1 1-1 1h-1v1l2 1-1 2-2-1-1 1h0l-2 1 4 2-1 1-1-1-1 1h0-1-1-1l-1 1-1 2h-1l-1 2-1 1-1 2v1 0h-1v2h-1v1h0 0l3 2h0v1h-1v2h-1l-2-1v1l2 1-1 1h0v1l-1 1v1h-1-1 0v1 1h0v1l-2-1h0v1 1h0l1 1-2 3-1-1 1 1-1 1h-1l1 1-2 4 1 1-2-1-1 2-1 2h-1l-2 3h-1l-4 7-2-1-1 1h1 0 1l-1 1h0 0 0 0l-1-1-1 1 2 1-1 1v1l2 1-1 1v1l-1 1-3 2h-1l-2 3 1 1-3 4h0v3 1 1h-1v1h-1l-3-1h0l2 1-1 2h0l3 2v1h-1l-3-2h0l3 2 1 1h-1l-3-2-2 3 4 2h0l-4-2-1 1-1 2-1-1h-2v2h-2v1h1l-1 2 5 1v-2h1v2l3 1h0l-3-1-1 2h1 3-3v1l3 1-3-1v2h3-3l-1 1 4 1-4-1v1h4-4 0v1h1l-1 2h2v1h0-1-1v1l3 1-2-1v1h2-2v1h2-2l1 1v1h0 0l-1 1v1 1h-1 0v1h-1l-1 2v1h-1v1h-1l-1 6 3 1v2l-3-1v1h2l-1 2 1 1h-2l2 1-2-1v1l-1-1h-1v1h-2 0l-9-1 8 1h1v1l-1 1v1 1l4 1v1l2 1h-1l-2-1h-3v-1l2 2h-1l-1-1v1l5 1h-5l6 1v1l-6-1v1h5-4v1 1 1h0-1-1-4v1h4v1h-3l-1-1 1 1 6 1v1h-6v2 1l4 1-1 1h1v2h-2 0 1l3 1v1l-4-1v1 3h4l-1 1-2-1v1l1 1v1h-1v-1h-1v1l-1 2 2 1h0v1-1h-1-1v2 1l-1 1h-1v-1h-1 0l-4-1v1l5 1v0h-1-1-1 0l-1 1h-1-1-3v-1-1-1 1h-1l1-2h-1l-1-1v3h1v2l-11-2h-1-1-1 1 1l1 1h-1l3 1v1l12 1v-1h1 0l1 1v0h0l1 1h3 1 0v1h1l-1 2h1 1-1v1h-1v2h-1 0-1l-5-1h-2 0-1-1 0l-1 1h1v1l1 1h1 0 0l-2 1-1 1-1 1-1 1h0l-1 1-1 1-1 1v1l-1 1-1 2-1 1-1 1-1 1v1h-1 0l-1-1h0l-1 1-1 1-1 2h-1 0v1h0l-1 1h0l1 1 1 1h0 1v1l-1 2-2-1-1-1-1-1v-1l-1-1-1 1h0v-1-1l-1 1v-1l-1-1v1h-1 0v-1-1l-2-2-1-1-2-1h0 0-1v-1h0l-1 2-1 1-1-1-1 1-1 1-1 2v1h0l1-1v-1l2-1h1l1 1 1 1-2 1-1 2-1 2-1 3-1 2v2 1l1 2v1l-1-1v-1-1h0l-1-1-1-1-1-1h0-1l-1 1-1 1 1-1h1 1l1 1 1 1 1 5-1 1-3-4-2-3h-1l-1-1h-1 0-2-1-1 0l3 4 2 2 2 2 4 3 1 1h-1-1l-2 1-4-4v1l1 1 4 3h1 0l2-1h0l-1 2h0l1 1-1-1h-2-1l-2 3v1l5 4h-1-1l-4-3-1 2h1v1l-2-1-5-3v2l22 12v3l-2 3-25-13-1-2-1-1-2-1h-2l-2 1h-1l-5-1-1 2 1 1h1 1l2 2h1l1 1h1 1l11 5 17 10-3 5-18-9-7-3-4-1-20-4-1 3 9 2h1l1 1h0l1 2 1 1 1 1h1v-3l7 2v1h3v1l-2 1v1 1 2 1l1 2v2l1 1h0v1 1l1 1h0l1 1h2v2l-1 1-1 1-1 1-1 1-2 1-3 2-1 1-2 1-2 1-2-1h-2-2-3l1-1-2-1v1h-2v-2h-2l-1 1h-2-2-3l-2-4-3 1 2 4-1 2h-1l-2 1 1 3-1-1-1-1v3h-1l-3 1h-1l-19 1v-1l-4 1h-1v1h-1v1h-1v-1h0v1h-3l-2-1-1-4 2-2v-1l-1-1 1 1v-1-1h0l1-1v-1h1l1-1h0l3-4v-1h1-1v-1h0l1-2h0 1l1-2 1-1h1 1 0 1l1-2h1v-3h1l1-3h-1v-1h-1l1-3 1-1 2-2v1h3l1-1v-2l1-6 2-3 1 1 2-1 3-5h1l1-1h1v-1l1-1 1-4-3-2 3-3v1h1v-1h0l-1-1 4-5 1-2h0l1 1h1 0v-1h0v-1h-1v-1l1-1v-1l-1-1h0l-1-1 1-1 1-1h1l1-3h0v-1l1-1h0l-1-1v-1h0l2 1h0l2-3-1-2h0l1-2h1 1 1 0v-1l2-3 2-2 1-1h-2v-1l-1-1v-1l-3 1v-10l-2-1v-1-2l1-1h3l2-1-4-3 4-4 2-2h1-1v-1h1 0 2 1 0 1l1-3 1-12v-1l1-4h0l3-7 2-2 1-2 2-2 2-1h1l9-3v-1l2 1 1-3h1l5-5 1-5-1-5h-1v-2l-2-1v-2h-6l-16 4v-1l-1-3 2-8v-1h0v-1l1-2h1l3-5v-1l3-3v-3l1-2-1-6-3-9-1-1 1-4 1-1 2-2h1l-1-1 5-6h1l1-3h3v0h-1v-2h1v-1h2v-2l2 1-1-2 1-2 2-2 1-2 2 1 2-2-6-3v0h2v-1h1v1h1l-1-1 2-1v1 1l2-2h1v-2h1 0l1-1 1 1-1-1h0l1-1h0 0v-1h1v-1h0 1v-1l1-1h0v1h1l-1-1h0v-1h1v-1h1 0v-1h1v-1h1l1-1h0l1-1h1v-1h1 0 0 1 0l5-1h2l11-2h1 1 0 0v1 1l1 1h0v1 1h0v2h1 1l-1 1h0v1h0v1h-1-1 0v1h1v1h-1-1v-1h-1-1v1h1 0v1h-1v-1h-1l-1 1-1 1v1h0l-1-1h-1v1l-1 1h0 0l-1 2h0v1h-2v1h0l-1 1v0l1 1v1l-1 1v2-1h1v-2h0v-2h0l1-1h1 0l1-1h0v-1 1-1-1h0 0v-1h1v-1h1 0 1 0l1-1h0 1v-1h0 1v1h1 1v-1h1 0 0 0 1 0v-1h1 0v-1h0 1v-1h0v-1h0v-1h0l1-1v-1h0-1-1v-2l-1-2h0v-1-1h0v0h2l1 1h2 0 1l4 3 2 2h0v0h0 0v1 1 1s0 0 0 0l1 2s0 0 0 0h0-1 0v3h0l-1 1h-1v1 1s0 0 0 0 0 0 0 0v1h0l-1 1h0v1h0l-1 1-2 1h-1v1h0-1v1h1v-1l1 1h1 1v1h0v1h-1-1v-1h0l-1 1-1 1h1 0l1 1 1 1h-1v1 1h0 0 0 1l-1-1 1-1h0 2l-1-1h-1-1v-1h1 1l1-2h0 1-1l-1-2h-2 0v-1l2-1h1 1l1 1-1-1-1-1 1-1 1-1h0v-1-1h0l5 2-5-3h1l1-1v-2-1l1-1h0l4 2-4-2h0l1-2 1-1h0v-1h-1l-1 1h-1l1 1h-1v-1-1-1h1 1 0 1l2 1-2-1-2-1v-1h3-3 0 0 0v1h-1l-1 1v-1h-1l-2-2h-1l-2-1-1-1h2 3l1-2h1v-1h1l4-8 1 1v-2h-1l1-2h0v1h1v-1-8h-1l-3-7v-1l-1-1h-1v-1h0v-1h-1v-5l4-2v-2h0l4-5h1l-3-9 2-10-1-1v-2h1l3 6 7 6v1h1v-1l1-1 1 1h0v0 1h0 1 0 0l1-1h0 1v1l2 1h3v-1l1-1 2-5v-2-1-1h0v-1h0l1-8 1-2h1l-1-4 4-7h1v-2l2-3h1l4-8v-1l1-1v-1h0v-2l-7 1v2 1l-1 5h-1l-1 2v3h-1v1h-1v5l-1 2-1 1v2h-1l-2 7v4 0 1 1h0v1 1l-1 6-1 2h-4 0-1v-1h0-1 0-1-1 0l-4-1v-2h-2l-2-1-1-6v-1l-2-1h0l-1-1h-1l-1-1v-1l1-2v-1-1-1l1-5-3-6h-1v-2h-1v-8l-1-1h0l-1-1v-1l-1-1v-1l-1-1h0v-2h-1v-1l1-6-1-1h1l1-7-1-2-6-1 1-3h1v-1l2-1v-1h1l2-5h1l1-7h-5v-2-5h2l1-1 4-4 1-2v-2-1l-2-3v-1-1h1v-1l1-1h0l-1-2-1 1-1 6 1 3v4l-3 1-1 2h-2v3h-1l-2 3 1 3 2 1v1l3 1v2h-1v1h-1v2h-1l-1 3h-1l-1 3h-2l1 6 5 1v4l-2 3 1 9v1h0l1 2v1h0 1v1l1 1h0v1l1 1h0v1 1 1h-1v1 1h1v1 1l3 4h1v2h0l2 4-2 3h0v1 1 1l-1 1v1l-1 6h1l1 2-2 11 2 9-8 5v1h-1v5l1 2v4 1h0 1 0v1l2 3v2h1v1h0v1l2-1v2h-2v1h2l-2 9h-1v2l-2 3-10-1-10 3h-1-5l-1-1v1h-2v1h-6l-5 3-2 3h-1l-1 1h0v1 1l-1 1h0v1l-1 1v1h0v1h-1v1h-4-1-1v-1l-1-1v-1h-1v-1h-1v-1h1-1v-1 1h0-1v-1h-1l-2-2-2-2-2-1v-1l-1-1-1-1-1-1h-1l-1-1-1-1-1-1h-1l-1 1h1l1 1 1 1 1 1 1 1h1l1 1 1 1 1 1 2 1 1 2 1 1 2 1 1 1h0 1v1h1v1h0l1 1v1l-1 2-2 2-3 1v1h-1l-3 11h-1v1l-1 1v1l-2-1h-1-1-2-1v-1l-1 1h0l-1-1h-1v-1l1-2v-1l1-2v-1h0v-1h0l-1-1h-1l1-1h1-2 0-1-1l-3-3-1-1h0v-1l2-1v-1l1-2h1v-3l1-1h0v-1l-1-1h0 0l-2-1h0v-1-1l1-1h0v-1-1-4-1-1h0l-1 1h0v1 1h0v2 1 1h0l-1 3h-1l1 1h0l1 1h1 0l1 1h0v1l-1 3v1l-1 1h0l-1 1h0l-2 1v1 1h0v1l2 1h0l1 1 1 1h0l1 1h1l2 1h0v1h0v1l-1 3h0l-1 2h0v1h1 0v1h1 1l1 1h2 0 1l1 1h1 0 1l-7 9-1 4-1 2v1l1 7v5l2 10-2 3-2 3-1 2-2 2-1 2-1 1v1 1l-1 1v3l2 8 4 4 21-1 1 5-2 3h-1l-9 5-2-1v1l-7 2-2 2-2 1h-1l-1 1-2 3h0v1h-1v1l-2 5h-1l-1 6v1 1l-3-1h-1v2h4l-2 7h-1l-1 3h-2l-2-1-3 1 5 1-1 2h-5l-5 2v1h0v-1l-4 1-2-5h-1l1-3h-2l1-3 3-20 1-2v-1h0l-1-1v0h1l-1-5-1-2h-1l-1-1-5-2v3l1 2 1-1 3 2 1 7h-1v-2h-1 1v2l-1-1-1-1v2l2 1-1 9-2 4v3l-1 2-1 7h-1v15l3 15-1 2h0-1v1h0v1h0 0 0v1l-1 3-1 3h-1 0-1 0-1 0v1 1h0l1 1h0l-1 2-1 1-2 2-1 2-1 1-1 1v2l-1 1h-1v1l-1-2-5-6-3-4-1-1-6-3-7-3-5-2-2 3 6 2 6 3 6 3 4 5 3 3-4 5-4 7-4 4-6-5-6-5-8-6-1 4 6 5 7 5 7 6 5 4 4 3-4 6-2 5-2 4h-1l-1 5h-1v1h-1 0 1l-1 3h-1l-1 2h-1v-2h-1v1l-5-3v-1h-3v-1h-2l-1 4-3 1-3 5-2 1h0v1h-1 1l1 1h-1-2-1-1v1h0l-1 1v1-1-1h-2l2 2-5 4-3 2v1-1h-1 0-1-1 0l-2 1h-2v1h-1v2l-9 3-1 2h-1v1l-4 1 1 1-3 2v1l-2 1v1h-2l-2 4-1 3-3-1 2 2v1l-1 1-1 1h-4-3v-1h0l-1 1 4 1v1l-1 1 2-1-1 3-1 1 1 1h-1v1h-2l1 4h-2l1 1 1 1h0 0v1l-2-1h0 1l-1-1-2 6 1 1 2 1v4h-3l3 1v15h-1l-1 8 1 4h-1v1h1 1 0v1h1l4 3v3l-1 5h0l-3 4-3-1v-2h-2l-3-3v-1h-1v-1l-1-7-1-1-4-1-2 1-3 5-13 1-2 1-2 2 3 1 1-1 6-1h1 0 4v-1h4l1-2-1 1h-2l1-1h2 0l1-4 3-1 1 2 2 9 2 1v1l2 2-3 21-2 10v3l1 2-2 5h1v2h-2v-1h-1l1 7-1 3h-1l1 2-3 1-1 5h-1l-1 2-2 1h-1l-2-1-1-2-12-3v1h1v1h-2l-2 1v1l-3 2h-1l-1 1-5 3-1-1-2 2-2 1-3 2-1-1-2 2-1 1h-1 0l-2 3-2 3v1h0l-1-5v-1l-1-2 1-1v-2h3 1l2-2h0l-2 1v1h-2l-1-1h-1 0 0 0l-1 2v3l2 8v3l1 3v4 2l-1 3-1 1-1-1h-1l-2 1h0v1l1 3h0-1-1l-1-1v-1h-2l-1-1-1-2-1-1-1-1v-1-1-1-1l-1-1-1-1-3 1h1 1 1 1v1 1 0 1 1 1l1 1h1l1 3 1 1 2 1 2 2h2v-1-2-2h0 1 0 1 0l1 1 1 1 1 1h0 0v1h-1v1 1l1 4h1v2h-1v3h2v0l-2 1 4 11h0l1 1v1l-1 3h1 0v1l-1-1-2 2h-3l-1 1-1 1v3l-1 1 2 1h0v1l-1-1h-1l-1 1-1 1-1 3v1h-2v2 1l-1 2h2v1l-2-1v2 1h0l-1 5-1 3h0l-2 3h0l-1 1h0l-1 2-1 1h0v1H3l-1 1h0-1-1v16h800V591l-47-1-13-1v-1h-3l-16-1h-1l-22 4 1-4h1l1-2 1-1 2-3h2v-1l3-1 1-1h2l1-1 3-1h4l4 1 2 1h1v1l28 4v1h1v-2h3v1l1-1h7l1 1 24-1 1-2h1l2-2v-1h4v-7h-1v-1h0v-2h0 0l1 1v-22h0v0h0v-1l-2-1 1-3 1-1v-10-1h0v-12l-1 1h-1-2 0l-1-1h1v-1-1l1-1h1v-3h-1l-1 3h-1l1 2-1 1h-1v1h-1l-1 1h-2l-7-14v-3h0 0 0l-1 3 2 3v2l1 1v1h1l3 9v2l-2 1 2-1v4l1 1 1-1h3v-2l1 1 2 7-2 2h-1l-2 9 1 1v-2l1 1-1-4h1v-2-3h1v3l2-1v1h1v-2h1v2h0l-2 6 1 1 1 3h-1l1 1-1 3h0v-3h-1v3h-1v2h-1l-1 2-3-1h-5v-4h-1v-6h1l-1-3-1-1-1-1h0l-1-2-2-4h-2v0h1v-6l1-2 4-3-3 1v-1h1l1-1 2-1-1-5v-1 5l-1 1h-2l-1 2-4 1v1h-1l1 1h1v1h-1l-1-1v1l-1 2h-1v1h-1l-1 7-5 1-1-1 1-6-3-1v-2l-4-1v-1l-1-1-1 4 1-1h0l4 1v1l2 1v1h1v3h-1v-1l-1-1-1 1h1l2 6-1 1v1l-3 1 1 1h3v1l-2 1-1 2h3l2-1-1 2 1 3v2h-1l-1 2h-3v-1l-1 1 1 1h2v1h1l1 2h3v-1h2v1h1l1 5h-1l-2-1 1 1h2l-1 3h2v-3h1l-1-4-1-1v-3l6-2h2l3 6h2v1h1v-1h1v1h1l2-1 1 6h-1v5l-1 4h-9l-2 1-7 1-17-3h0l-6-1-1-2-1 3-1-2-5 1-1-1v1h-2v-2h-2l1-2-1 1-2-1v-1h-3v-1h-1v1h-1-1l-2 1v-4h1-1v-2h1v-2h2l-1-1h1l1-2h-1v-1l4-1 2-1v-4l-4 2-1 3-4-1-1 3-2 1 1 1h1l-1 9h0v1 1h0 0l-1 1h-1-11l-7 4-2 2-27 1-36 8v0l-4 1-12 3h-3l-61 27-4 1-2 2h-4l-7 3-3 1-4 2-3 1-22 9-14 2-46 23-3 1v-18l2-5h2v-1l3-1 5-1 3-4h1v-1l4-2 12-2v-1l4-2 5-1v1l3 1v0h1v1l4 1 2-1 1 1 8-4 1-4 3-2h3 8l1 1v-1h3v-1h5 1l15-9 2-1 1-1h0l12-8h1v-1l6-3 15 1v-2l14-3 1-1v-1l7-3h2l2-1 4-2-1-1h1 1l1-1h1l2-1v-1h2l2-3h0v1h1v-2h1l7 3-2-2-3-1v-3h3 1l1 3 2 2v-3h-1l-2-5v-2h1v-1h3v0l13-2 1-2 2-1 1-1 4-3v2h-1l-2 4-2 1-2 5 1 1 1 1-1 1h2v-5h1l1-3h2l2-4h1l1-4h-1v-2h1l1-2h1l1-3 3-2 5-1v2h1l-2 11-3 4h-3l-2 2h0l1 3 2 1v-1l2-1 3-6h1l1 5h1v1h1l3-1v1h2l-2-2-1-1 1-9 1-5 1-1v-2l-3-2-1-2-2 1v-5l9-1 3 1v3l5 1v2l1-1v1h1v-1h0v2h6l1-3h-3l-1-2-1 1-4-1v-1h-2v-1h-1v-2h2v-1l6-2v-1h-1v0h0v-2l-2 1h-4l-1 2 1-1 1 1-7 2h-5v-2l2-5h1l4-1v1l1-1-1-2 3 1-1-4 5 2v-2l3-1 2-5h5l3-2 1-2h1v-1l1-1 4 2-2-4h1v-1h3v1h4l3-3h1 0-1-2v-1l-2 3h-2l-2-3v-1h-1 0l1-1v-1h0l1-1h0v-1h0v-1-1h0l1-1h0l1-1 1 1h0 1v1h-1v1l-1 1v1h0v1h1 1 0 2l1-1v1h1 1v-1h1v-1-1-1h1v-1h0l-1-2-1-2-2-2-3-2h0l1-1h0 1 1 1 0l1 1h0 1v-1h0l-1-2v-1-1h-1v-3l-1-2 1-1 4-2h2l3-1h2l6-3h1l1 1h0l2-2h-1-2 0 0l-3 1-4 2-3 1-4 1-3 1-2 1h-2v1h-1l-1 1h0l1 1-1 2v4h0v2h-1l1 1v1h0 0v-1-1h0l1 1 3 1 1 2 1 1 1 1h0-1v-1h-1 0 0l1 1 1 1h1l-1 1-1 1v1 1l-1 1h-2-2l-1 1h0l-1-1v-1h1l1-2h0v-1l-1-1h-1-1l-1 1 1-2v-1l-1 1v1 1h-1v1l-1 1h-1 0v-2h1l1-1h-1v1h0-1v1h-1v-1l1-1v-2-1-1h0v-2h0v-1l-2-2v-1l-1-1h0v-1h0-1l-1-1h-1l-2-2-2-1h0l-1-1h0v1h0l1 1 2 1 1 2 1 1h1l1 1h0l1 1 1 3h1v3h0l-1 5-1 1v1 1l-11 5-11 6h0-1v1h-1 0l-2 4-1 3v3l-1 3-1 1-1 1h-1v-2-1l1-3-1 1-2-4-5-4h-4l-2 3-1 1-4 8-2 1-1 1 1 3-1 1h1l1 2v3l-3 1-4 2h0 0v1 3l-2-1-1 1v1l1 2h-2v-1l-2-2-3-1-2-1h0 0 0v0l1-1 1-1h-1v1h-2l-1 1-1-1 2-2v-1-3l2-1h0l1-1 1-2v-2l3-7h0l1 1 1 2-1-2v-1l3 1v2 1-1l1-2 1-1 1-1h1l3-4 1-1 1-2 3-5h-2l-1-2-5-3v-1l-3-1-2-3h-2v-1l-3-1v-1l-5-1v-1l-16-9v-1h-5v-1l-4-2-1-1h0l-4-4-2-10v-2h0v-1h0v-1-1l1-2v-1l1-1 1-1h1l1-1h1 0 1 1 1 0 1l1 1h2 1 0 1 0 1 0l-1-1-9-2h0l-2 1-3 1-1 1h0l-1 1v1 1 1l-1 1h0l-1 3h0v1l4 13-2-1-1-1-2-1v2l-3-1-4-4v-4l-1-1 1 9v2l-6-1-5-22h1v-2l-2 1 1 4v2l1 3 1 5v2l1 3v2l2 7h-1l2 5 2 5v1l5 3v1l2 1-1 1h1v1l5-1 1-7 1 1 5 29h1l2 4h-1v1l1 1-1 2 2 7h3v0h-1v2h-1l1 10-1 4-3-1v2 2l-1-2-1 3h2l-1 7-1 1v3l-1-1-1 1 1 2-1 1h0-6v-1h-2v-1h1v-2h0 1l1-1h-4v1h0v-1l1-2h1v1l2 1 2-4h-2v-1h2v0h-1v-1h1l-1-1h2l-1-5h1v-2h-1v-1h2l1-3 2-5-1-1-1-1-1 2-2 1-3-6-2-1h0-3v-2h0v2h-1v-1l-5 1v1l-3-1v-1h-2v-2h1v-1h1l2-5 3-4v-1h1 1l1-2h1v1-3l-1-1v2h-1v2l-1-1-1-2 1 1v-5-2l-1 1v1h-1l1-2 1-1v0h-1v1h-1v-1h1l1-6-3-10-4-13-18 1-4-3v-4h1l2-4h1v-1h0l-4 2h-2v-1l-3-1v-1h1v-1h-3l-2-4h-1l1 2 3 5-1 8 1 4-6 2-2 2h-1l-2 2-2 1-3-1-3-8h-2l-1-2 1 5 4 6v3l-2 2-4 2-2-2-1-1h-1v-1l-2-1v-1h-1l-2-3 1-1-4-3h-2l-1-1h-1v-1h-1l1 2h1v1l2 1 1 2h1l3 5h2l1 4v3l-3 2h0-1v1l-3 3-1 1v0l-1 1 2 2-1 2-2-3-1 1-2 1-3 2-5 6-5 2 2 6-1 1v6l8 3v1l-1 1h2v3l-1 1-2 1v1l-1 1v2l-4 2h-1l-5 1-1-2-1-1 1-1v-1-2-1h0v-1l-1-1h0v-1h0-1l-1-2h-1v-1l-2-2-1-1-2-3-1-1h0-1 0-1v1l1 2h1 0l1 2 1 1 1 1 2 1v1 1h1v1h1l1 1v8l-5 2-1-2-3-1v1h1v1l-2-2v2h1v1 1h0l-3 1-4-1v-1l-4-3v-2l1-2h-1l1-2v-1-1h1l1-1-1-3 1-1h-1l2-1v-1h-1l-3 3 1 2-2 2v1h-1l1 1-1 2-1 1h-1v1l1 1h0l3 3 2 2 1 1v1h1v1h1 0 1 1 0l1 1h1 0 1 0 0 1 0l13-2v-2h1v1l4 1 2-1v1l3-1 4-2 1-1h6l1 2 4 24h1v3l2 6h1v3l-2 3h0l-2 4-3 1-13 3-5 2-2-4 1-7-3-4v-3l-1-2-1 1v-1h-2l-1 1h-3l-5 1h-2l-2 1h-1l-1-5h1l-1-9-5-9-3-2v-1l-4-1h-2l-2 3h-1v-1l-1-1h-1l-2-2-1-1h0-1 0v-1 0-1-1 1h-1v-1l-1 1h0l-1-1v1h0l-1 1 1 1 1 1 1 1h0l1 1h0l1 1h2v1h1l1 1 1 1v1l1 1 1 1h1v1l1 2h1 0 1l1 1 1 1v1h1l1 2h0l1 2 1 1h1l1 1 1 1-1 1-2 2h-2v1l-1 1-1 1h-1-2-1-1-1-1l-1 1-1-1-1-1-1-2-1-1v-1l5-4-5 4-1-1h-1-1v-1l-1-1v-1-2l1-1v-1-1-1h-1-2v-1h0l-1 1h0l1 1v1h1v3 2l1 2v1l2 2-3 1h0 3 1l1 1-1 1h1 1l1 1 1 1h1 1 1 1 2 2l2-1 2-1 2-1h1l1 1h1 1v5h1l-1 2h1v1h-5l-19-3h-16l-1-1-1 1h-15v2l6-1 9 3h14l2 9-6 1v-1l-10 1-3-1v1h-1l-21 3-23 4v-1l-33 3v-3l-2-1v0l-10-3-3-5 2-5h1v-1l2-2h16v1l7 3h3l2 1 2-1 1-3h1v-1h-1l-1 3h-2v-1l-1 1v-1l-3-1 2-6-6 4h0l-8-2 1-2 3-2h-2v-1l3-1 1-2 2-1 1-1-4 1-1 1v1h-1v1l-2-1v1h0v-1l2-1 1-2h-2v0l2-1v-1h-1v-1h2v-2l-3 1-1-1 1-1v-1h-3l-3-6-1-1-5-4-1-1-4-3-9-2h-1v-1h-1v-1h-1-1l-4-1-7-1h0-1v-1h-1l-1-1h0-1l-1-1-1-2h0l-1-1h0l-1-1h0 0 0v-1h-1v-1h0v-1l-1-1h0v-1l-1-1-2-2v-1l-1-2-1-1h0v-3l-1-5h0v-1-1-1-1l-1-1 1-1h-1v-1-1-1h1v-2-2-2-1-1-1l1-1v-2l2-4 1-4 1-2 1-2-2-1h2l1-1v-1-1h0l-1-1h0l3-4 1-1 2 1v1-1h1-1 1l2-2 2 1 1 1 2-4h1l-5-4v-1l5 4 1-1v1l1-2-1-1h0v-2l2-3 1 1v-1l2 1 1-1-5-4h0l3 2 1-1-3-2v-1l2 2 1-1-2-2h1l2 1 1-1-3-1 6 3 1-1-5-4 5 3h0 1v-1l-4-3 1-1 4 3h0l-3-3v-1l4 3 1-1-5-3 3-3 2 2h1l2 1 1-1-4-3 2-1 5 4 2-1-4-4v-1h1 1 0l4 2v-1h-1l1-1 3 2-3-3h0l3 2 1-1-2-1h0l-1-2h0l6 3h0l2-2-2-2-3-2h1 1l1-1v-1h1v1l1-2v-1l1-1v-3-1l-2 5h-1l-1 1h-1l-1 2-4-1-1 3 3-8-1-1-2 5h0l-1 2 1-2h-4l-2 6h-6 0-1 0-1 0l-1-1v-1-2l-1-7h-1v-1l2 1 2 11h0l1-1h3l1-1 2-5h1 0-6l5-1v-1h-1v-1h0-1l-1 1-1 1 3-2v-1h-1v1h0l-3 1 3-1v-1l-1 1v-1h0-1 0l-1 1 1-2v-1l-2 2 3-4h0l-2 2-2-1 2-3h0l-4 5-1-1 2-2-2-2h1l-1-1h1l-1-1-1 2 1-2 1-1v0l-3-1v0l1-1v0-1h0 1v-1 0l-1-1h0v-1h1l1-2 4-2v-1l3-2 1 1-3 2 1 1 1 2 1-2 3-3v-1l-1-1h0l-2 1v-1l2-1 1-1 1-1 1-1h1 0 1l1 1 1-2-3-1v-1l3 1 1-1h0l-3-1 1-2 3 2 1-1-4-2 1-1 3 1 2 1h1v-1l-5-2v-2l4 2v-1h0l-3-2v-1l3 1 1-1-3-2 1-1 3 1h0v-1l1-1h0l-1-1h0 1 0l1-1-3-1 1-2 2 2 1-2-3-1 1-1 3 1v-1l-2-2 3-4 1 1 1-1h0 0 0l1-2h0 1 1 1v1h1 0 0l1-1h0 1 1 0 1v-1h2 0v1l1-1 4-1h1 2 2 2l-1 1 1 2h1v1l1 1 2 2h1v1l1-1h1v-1-2l1-1 1 1h0l-5-4 1-1 1 1 1-1-2-2v-1l4 4v-2-1l-1 1-1-3 1-1 3 4v4l3 2v-1l-2-2v-2l-1-3v-2l1-4 1-2-1-1 3-7 2-4v-2l1 1 1-1v-2l1-1 1-1 1-2v-2h-1 2l3 1h1v-1h0-3v-1h-2v-1-1l1-3-1-4-1-3v-3l1-2 2-2 3-3 2-1 2-1h1l1 1h2l2 1 3 1 2 1h1l-1 3v2h0v-2l1-2 1 1v-1h1l-1 1v1l1-2 2 1 1 1 1 1h0l1 1v1h0l1 3 1 1v1l2 2 1 1h2l1 1h2l2 1h2 1v1h1l1 1 1 2v1l1 2 1 4 1 3h1 0v3l-7 2 1 2-4 2v1l1-1v2l-2 1 3 8h1l-2-7 2-1h0v-2h-1v-1l2-1v1h1v-1-1l-1-1 2-1 3-1h1l2 1v2l-2 2 1 1h1l-1-2 2-1 3 1v-1l-3-1v-2h-1l-1-2v-2-1-1l-1-1h0v-1-2h4 1 1 0l-1-1h-1-1 0l-1-1h-1-1 0l-1-1-1-1h0l-1-1-1-1v-1l-1-1-1-1h-2-1l-3-1h-1-1l-2-1-1-1h-1l-1-1v-1l-1-1-1-3h0l-1-3-1-1-2-1-4-2 3-1 2-1h1l1-1v-1h1v-1-1l2-3h0 0l-2-1v1h1l-1 3-1 2-3 2-2 1-3 1-4-2-3-1-2-1h-1-2l-1 1h-1l-3 1h-1l-1 1h-1l-1-1h0v-1-1h1 0v-1h0v-1h1v-1-3h1 1v-1-1h1v-1h0l-1-1h0 1 0l-1-1 1-1 1-1h-1l2-3 3 2h3 0l-3-1-2-1 1-1 1-1v1l1-2h0v-1l1-1 1-2 2-3 1-2 4-6 2-2 2-4 2-3 1-2 2-3 1-1h1 1l1-1 2-1v-1h2l1-4-4-2v-1-1-2l2-4h0l2-1h1 3v1h1v1l2 1 1-1 2-2 1-1h1 0 1l1-1 1-1 1-1h0l1-1 1-1v-1l1-1h0l1-1h1v-1l1-1h1 1v-1-1h1l1-1v-1l1-1v-1l3-3-2 2 2-1 1-1v-1h0 1 0v-1h1l1-1 4 1h0l3 1h1l2 1v-1l1 1h1 1v1l1 1 3 2h0l2 3-4 4h-4v1l-1 2h-1v1h1v-1l1-1h1l1-1h1l1 1 2-2 4-2-3 2h1l1 1-1 1 2-1 1 1 1-1v-1l1 1h0l-2 1 1 1h1v1l-1 1v1h1l1 1 1 2 1 2v2h0v1 2h-1 1v1l3-1h4 0v-1h0l-1-1h0 1v-1-2l-1-2v-1-1h0v-1l1-1h0 1 1v-1h2 2 0 1 0 1l-1-2 1-2 5 2h0l4-6 1-1 2 1v3l-1 2h-1l-2 3h1 0l1 1h0 1v1h1 0l1 1 1 1h1 0l1 1h1 0v1h1 1l1 1h0l1 1h0l1 1h1 0 1v1h1v1h1 0l1 1h1l1 1h0 0 1 1 0 0 1v1h1v1 1h0v1h0l-1 1v0 1h0v1h-1l-1 1-1-1v1l-2 2-1 1h0-1-1-2 0v1l1 2 1 2 2 3h1 0v1l3 1 1 1h1l1 1h1 1l1 1h1 1 1v-1h1 1 0l1-1 2-1 1-2 2-1 1-1v-1l1-1h0l3-1h0 2v1l1 1v1l1 2v1 1h0v1h0l-1 1v1l-1 2v2l-1 1v2h-1l-1 1v2l1 2h0v1 2h1v-1-1-1l-1-2 1-1 1-2 1-2v-3l1-1 1-2v-2-1-2l-2-4v-1h-1-1v-1-1l-1 1h0-1l-3 1-1 1h-1l-1-1h-1l-1-1h-1l-1-1-1-4h-1v-1h2l-2-4h1v-2h1l-1-7-1-3h-1v-1h1v-2h-1v-1h1l1-2-8 1-1-1 3-1v-1l-1 1-5-1v-2l-1-1-1-1h1v-2h3v-1h0 1 0 2l1-1h0 1v-1h-1l-1 1v-1h-1v-1h0l1-1v-1l2-1v-1l-1-1h0v-1-1 0-1-1h1 0 1l1 1 3 1h0 1l-1-2h0 1l-1-1h0l1-1h0l1-1h2 0 1v1h0l1 1h0 1 0 1v-1h2v1h1v-1h0v-1l1-1v-1-1 1h2l1 1v2l1 1v1 1l1 2v1 4h1l1 1h1v1h4v-1l-1-1 1-2 2-1 2-2 1-1-1-4h0 0v-1l-1-1h0 0 1 0 1l1-1h0 0v-1h0l1 1h1 0 1v-1l1-1h0l2-1h0l1-1v-1h0 1v-1h1 1 0 0l3 2h1v1h1v1l3 1 1 1 1-2h1v1 1h2l1 1h4 0 1v1h1 1v-1h1 1v0h0 1 1 0 0 1l1 1h1 0 1v1h1 1l1 1h1 1 0v1 1h0v1 1h0l-1 1 2 5 2 1v-1l2-1 1-1h1 1 1 2 2l1-1h1 0l-2-1h3 1 1v-1-1-2h0v-1l-1-1h-2 2 0v-1h0 1l1-1h0 1v-1l5 1 1 2h1l1 4 1 1v1h1v3l2 2-1 2v1l-2 1-2-1v2l3 4 1 1 2 3 1 1v1l1 1h0l1 1v1 1l1 2v1l1 1h0v1l1 1h0l1 2 1 1 1 1v1h1 0l1 1v1l1 1 1 1h0 1l1 4h2l3 1v1l2 1v1h1l-3-4 1-5-2-3h2l1-1-1-6-1-1 3-9h1v-1l3-1v2h1l2 3h1v-1h1v-1-5l-2-1v1l-2-1-5-5v-4l-1-2v-14l3 1-2-3v-2l-2-1h-1l-2-2-2 1v-1h-1l-3-6h-2l-2-4h1v-3l-2-2 1-3h-2l5-7 6-1 5-7h1l1-5-2-7h-1v-1l-3-3v-6l3-2 1-3v-2h2l1 2 2 1v3l5 2 5 1v1h0l2 2h1l1 2v2l1 1v1l1-1 1 1h7l1 1 1 1v3l1 1 1 1 5-1v1l6 3v2h1l2 4h2v4l1 1v1l-1-1v2l3 8v6l-1 1 3 8v2h1l1 5 2 1 1 5h1l-1 1h1v-6l-1-1v-3h1v-2l-1 1-1-1v-11l2-5h1v-4h0v-2l2-1 1-2 2-1 2 1v-2h-2l2-5h-1l-2-7 1-7h1l1-6h-1 0 2v-4h0v-1l1 1v-2l4-1-2-3h-1l-2-2-1-1v-1h-1v-2h-1v2h0v1h1l1 4-5 2v0h1v1h-4v0h-1l-3-9v-2-1h1 1l2-1 1-1h0 0-1l-1 1h-1l-2 1-1 1v1l-2 1h-1l-2 1-1 1h-1v-1l-3 1h0-2l-1-1h-1l-1-1v-1h-1l-2-1-2 2v1l1 2v2l1 2-1 2v1h-1l-1-2-1-3-1-1v-4l1-6-2-3h-2l-2-2v-1l-1-1-1-2-2-1v-1h-1v-3h0l4-1 7-3v-3h1l2-6-3-7v-6l-1-1v-2h2l4 1h8l1-3 1-1h1l1-2h2l1-2h1v1l1-1v1h1v-1l3 2v1l2 1v1l8 3h1v1l24 9v1h2v0l4 1V0h-87v1l1-1v2h1l-2 3h-1-1v1h-2V5h-2v1h1v2l-2-1-1 1v2h-3v1h-1v2l-4-1v1h-1l-1 2-1 1-1 1h-1v-1h1l1-3 2-2h3V5l-1-1-1 2h0V5l-3 2h0-1v1h-1v4h1v1h-2l1 1-1 1h-2v-4h0v1h-1v-1h-1l1-1h-2 1l-1-2 1-2h-1l-1 1h-1v2h-1l-1 3 3-1 2 1v4l-3-1-1-1h-1v-1l-2 1-1 1h-1v-2l-1 1h-1v0l2 1h-1l1 1v4h-1l1 1 1-2 3 2h-1l1 3h-2l-1 5 3-1v1h2v1h1l-1 4 1 2-2 2v2l-1 1-2-1h-2l1 5h-1-1l-1 1h-2l-1 4-1 1h-1v1h-1l-1 2h-3l-1-1h-1v-1h0v-1l1-1 2 1v-3l-1-1 1-1h1v-1h1v-1h-1l1-3 1 1v-7h2v-2h-1v1l-2 1-1 3h1l1 2h-2l-1 5-2 1-1 1-2 4v1h0l-1 1-2 2-3 2-2 2-1 3-2 3-3-2-3 5-1 3-1 4-3 5h-2l-1 3-1 3-2 4h-2-2v1l1 1 3 2v1l1-2v0l3-5 3-4 1-1 2-1 1-1 1-1v-2l-1-1v-1-1l1-2 1-2h1l2-2 2-1v1 2l1 1h1 2l3 1v3l-2 2-2 3v2l1 1 3-1 1 1v2l-1 1-1 1h-3-3l-3 2-2 3v2l-1 3 1 1 1 4-2 2-2 3 1 2v1 1h-1-1 0l-2 1-1 2h-1v2h0l1 1v5l-2 1-1 3-1-1h-1v-3l-4-7v-2h1v-2-1-3-2l-1-2v-1h-1-1v1 2h-1l-1-1-1 1v1-1l-2-2-1-2-1-1h-2l-1-2-2 3v-2h0v-2-1-1l-2 2h-1l2-3 2-3-1-1v-1l-1-3h0l-1 2h-1-1v-1h-1l-1 1-3-1-1-1v-3-3l1-4 1-5 1-2v-2-1-1h0l1-2-1-2v-1h-1l1 2v1l-1 1v2l-1 3v1h0v1l-1 2-1 1v1 1 1l-1 2h0v2 1h0v2 1 2l2 1 3 3v2 4 2l1 1 3 2h1v1h2 1l1 1 1 3 1 8h-6 0l-1 2v1 1 2h1 0 1-1v1l1 1h0l1 1v1h-1v1 1h0l-1 1 1 1h0l1-1v1h1 0 1l-1 1 1 1h0 1 0l1-3-1 4h0l-1-1h0-1v1h1v1h0-1v1h-1v-1h-1v-1l-1 1h0v1h0l1 1v1 1 1l1 1v1 1 1h-1 0-1v1 1 1 1 1 1h0v2h0v2l1 1h0v1l1 1h0l3 6h4v0l-5 1-1 3 1 1-1 1v1h1l1-1 1 1 1-1 2-1h0l1-1h2v1h1v3l1 3v1 1 1l2 2v1h1 1 0 0 1l1 1 1-1v1h0l1 1h1 1v1h1v1 1-1l-1 1h0v0h0l-1 1-1 1-1 1h-1 0v1h-1v1h-1 0 0v-1-1l-1-1-1-1v-1h0-1l-1-1h0v-1h-1v1 1h0 1v1h1v1 1h0l1 3h1l2 4 2-1v1h3 1l8 5h1 0v-1h1v2h0l1 1v1l-1 1-1 1h-1-2l-1-1v-1l-1-1-6-2v-2h-2v-1l-3-1-1 1-2-1v-1l-3-1-1-3-2-1-2-1h-2-1l-1-1h-2 0-1-2l-3 1h-1l-3 1-3 1v1h-1-1-1-1-1l-1 1h-1l-1 1v1l-1 1v1 1 1 1 1h0v1 1h0l-1 1h-2v-1h-1l-1-1h-2 0 0l-1-1v-1-1l-1-1v-2l-1-1v-1l-1-2v-12h1v-6-2h0v-2h-1l-1-4-1-2-1-3v-1-1l1-1v-1l1-1 2-2 1-1v-1l-1-4v-1-1h0v-1-1h0v-1h-1v2 3l1 4-1 1v1l-2 2-1 1v1l-1 2v1l1 3 3 10v3l-2 1-1 1v1 1l-3 6v1l-1 3-1 1h0v1l-1 1h0l-1-1-1-3-1-1-2-1-1-1h0-1-1v1h0 2v1h1l1 1h0l1 1-1 1 1 1-2 2 1 3 1 1 1 1-1 1 1 1h1 0v1h-1l-1 1h0v-1h-1 0l-1 1h-1-1 0-1-1-1-1 0-1v-1h-1 0-1-1l-1-1v-1-1-3l-1-2h-1 0v1h1v2l-1-2-1-1h-2l-3-1h-3-1l-1-1h0l-1-2-1-1-1-3h-1l-1-1-6-2-2-1-1-1h-1l-2-2-1-1-1-1-1-1v-1-1h0l-1-2-1-1h0v-1-2-1-1-1l1-3h0v-2-1h0l-1-1h0l1-1h0v-1-1h0 1 0 0l2-3v-3l1-1h0v-1l1-1 1-3 1-1h0v-1l2-4 1-2-1 2-2 4-1 1h0v1l-2 3v1l-1 1v1 1h0v1 1l-2 2h0-1 0v1l-1 1v1 1l1 1v1 1h-1v1l-1 1v2 1 2 2 1l1 1v0 1l1 1v1l1 2 1 1 1 1 1 1 1 2h0 1v1l3 1 3 2h1 1l1 1h0l1 1v1l2 2 3 8-1 2v1l-1 1h0v1l-4 6h0 0v1h-1l1-1h-3v-1h-1l-1 1-2-1v0h1v-1h-2v-2l-9 2-1-1-1-2h-1v-2h-3v-2h-3v-1l-4 1v-1h-2-3v2h-2l-2 1h-1-1v1h-1l-1 1-1 1-2 2-1 2-1 1v1l-1 1-1 1-1 1v1h-1l-1 1h0-1 0-1-1 0l-1-1h0-1l-1-1h-1l-1-1h-1l-1-1h0l-1-1h-1v-1h-1v-1-1h-1v-1h-1v-1h-1 0-1-1-1-1 0-1-1v-1h1v-1l-1-1h-1 0l-2-3-2-3-1-2-1-2v-2-2l1-1v-2-2-5-3-5h1 0-1l-1-7v-1-2-1l-1-5v-1-2-2l1-1v-2-1l1-1h0l1-2v-1l1-1v-2h0l1-3h1v-1-1-1l1-1v-1l1-2 1-1 1-1v-1l1-1 1-1v-1-1l1-1v-1l2-3 1-2h1v-2l5-6v-1l2-2 1-1 1-2 2-2 2-4 2-2v-2l1-1v-2-2l1-1v-1-1l-1-1-1-1-1-1-2-1-1-1h-1l-3-1h-1-2l-1-1-2-2-1-1-1-1h0-1v-1h-1 0-1l3-5 4-13 10-41 3-16zM373 584v1-1zm-47-378 2 1-2-1Zm-7 16h1 0zM190 0v2h-1v1h1l1-3Zm131 0-1 3 4 6h1l-1-2-1-1-1-1V0Zm375 0v0l2 1V0Zm2 1v1 1-1h1zm-1 2v1-1 1h1zM190 4l-2 1-3 5v5l1 5 1 7-2 4h1l2-3 1-5-3-11 2-5h1V6h0V5h1zm135 5v2 1l4 1v3l3 1v1h-2l2 5h-1l-3 2v3 2h-2 0v-1l-1 1 1 2v-1h1 1l1-2h2l-1-2 1-3h1l1-4-1 1 1-3-1-1-2-1v-5l-2 1h1-3Zm352 3v1l1-1zm4 3h1v1h-1Zm3 1h0v1h0Zm-1 1h1v2h-1v-1h0zm9 1v2h-1l1 2h-1v1h0v-3h-1v-2zm-4 3h1v0h-1zm0 1v0h0v1l-1 1v-2zm-357 3-1 2h1v-1h0 0 0zm355 13v1h-1v1h0v-1Zm-496 9v5h-1v-1 2h3v-2h1v-3h0v-1Zm477 0h0v0Zm-476 6-1 1v0h0l-1 4h-1l1-4h-1l-1 7 7 5h3v1h1v1h1v1h2l1 2h1l-1-1h2l-2-2h-3v-1l-4-3h-1l-1-1h0v-1h-1zm473 1 1 1v1h0v1h1v1h-1v1h0-2-1l-1 1-1 1 1 1h0l1-1h1l1-1 1 1-2 1v2h0v1h0-1v1l-1 1 1 1h-1l-4-2h-1l-1-1 1-1h0v-3-1-1l2-1 2-2 1-1h1 1zm33 1h1v1h0v1h-1v1l-1 1v1l-2-1h1-2v-1l2-1h1Zm-19 2v1l4 1v4l-1 3 1 4-4 1h-1l-2-3h-2l-1-3h2l2-5h0v-2h0v-1zM203 71v2h0l1 1 4 5v1h1l1 3 1 5 1 1v1h1l2 8 5 3v3l1 3-1 4-1 1-1 1-2 1-2-1v-2-3l-2-2-2-1-4 1-2 1-1 6 1 3v3 2l-1 3-3 13-1 1h0v1l-1 1-1 1v1 1l4 11v3 1 1 1l-1 3v2h0l-1 2-2 4h0v1h-1l-1 1-1 1h0-1l-1 1h-1 0-1 0-1v-1 1h0l-3 1-1 1h-2 0l-1 1h-1v1h-1v1h0l-1 1v1l-1 2v2 1 1 1l-1 1 1 1-1 1h1v1 1 1l-1 3-1 2v2 3l1 2 1 3v1h0v2l-1 2-1 2-4 7h0l-1 1h0l-1 1v1h-1v1l-4 8-1 12v1l-1 1-2 3-1 1-1 1-2 2-2 2v2h-1l-2 10h-1l-2 3h-1l-4 8-3 20-1 3v2 1l1 3v1l1 1 1 2v1 2h0l1 1v1h0v1l1 1v1l1 1v1-1h1v1h-1 1v1l1 1h1l1 1h0l2 1h2 1 1 3 4l4-1 1-1 2-1 1-2 1-2 1-2 5-3 14-2 1-1 1 1h3v1h1v1h1v-6l-19 2-9 6-3 5-2 1-9 2h-1-1-2-1l-1-1-1-1h-1l-1-1v-1l-1-1-2-5-1-3v-1l-1-1v-1-1-1h-1v-1-1-2h0v-3-1l2-13h1v-5h1l4-6 10-20 1-2 1-1 3-5h1l-1-7 1-3v-3l3-5 1-2 3-4 1-1 1-2 1-1h0l4-10-1-3-1-5 1-3v-4-1-3-1-1-1h0v-1l2-7h1v-1l6-2 2-1h2l1-1h1l1-1 2-2h1l1-1v-1l1-1v-1h0v-1-1l1-1v-1-1l1-1v-1-3l1-2-1-6h-1v-1l-3-8 2-3v-1l1-1h0v-1-1-1 0-1l1-1v-1-1h1l-1-1v-1l1-1 1-2 1-4v-2l-1-5 1-6 2-1h4l2 1 1 6 2 1 3-1 2-3 1-4-1-7-1-2-4-1-2-7-2-2-2-9h-1v-1h-2l-1-3-2-1v-3zm487 3v2h-2l-1 1 1-2zm-224 1h0 0 1 1 0 1 1l1 1v2 1 1l1 1 1 1v1h1l1-1v-1l-1-1-1-1v-1l3 2v1 1l1-1 3-1h1l2 1h1l2 1 1 1v1 2 1 2h-1 1l-1 3h-1v1l-1 1-1 3-2 1v1h0l-1 2-1 1-1 2-1 2-2 2h0l-1 2-2 2-1 1-1 3-2 3-2 3-1 2-2 4-1 2-1 2v1l-1 2v2l-3 6-2 4v2h-1v2 3l1 8h0v6l1 9v3 4 2 2l-1 2v2h0v3l1 1 1 3v1l1 1 3 4h0v1 1l1 1v1h0v2h0v6 2l-1 2-2 1-2 1-1 1-1 1-1 1v1h-1l-2 3 2 1-2-1v2l-1 1v1l-2 3-3 2h-1v1l-1 1h0v1l-1 1v1 0l1 2v1l1 2v2l1 2-1 1v1l-2 2-1 2-1 1-1 2h-1l-4 6-2 4-3 4-2 3-3 3-1 2-3 5-1 1-1 1h0-1v1l-1 1v1l-1 1-1 2-5 8-2 2-1 2-1 1-1 2v1l-1 5v6h0l-2-1v1l1 1v1l-1-1 1 7 1 1h0l1 1v1l1 1h0v1 1l-1 1v3 1 2l-1 2v4l-1 1v2l-1 3v1l-1 2v2l-1 1-1 3-1 2-1 1h-2-3l1 1-10 1v-1h-3l-3 1h-2 0l-4 1h-1-1l-1 1-1 1-1 1v1h-1l1 2-1 1-1-1h0 0v1l-1-2-1 1h-1v1l1 2-1-2-1 1 1 2-1-1-1-1h0l-1 1 2 2-2-2-1 1-2 2v1h2l-1 1h-1l-1-2-2 1v1h-1-1-1v0h-1 0-1l-1-1-1-1-1-2-1-1h0v-1h0-1l1-1h0-2v-2-2h1v-2h0l1-7h2v-1h0v-1h0l-2-1 1-9 5 1 1-2-1-1h0-2v-1h2 1l-1-1v-1h1l1-3v-2-1-2l1-2v-1l-4-1v-4l4 1v-5h-4v0h4v-1-1h-1 0 1l1-3v-4h-1v0h1v-2h-2v-1h-1 0 2v-1h2v-1l-3-1h3 0l1-2h-1v-1h-3v-1h3 0 1v-2h-1 0l-3-1v-1l3 1v-1l-3-1h0 4v-1l-3-1h0 3v-1h-3v-1h2v-2h0l1-1 2-6 3-6h1l-1-1h0l-2-2v-1l3 1 2-3h0l1-1-3-2 3 2 1-2-3-2 3 2 1-1-3-2v-1l4 3 1-1v-1l-4-2v-1l5 3v-1-1h0l-4-3h0l5 2 1-1-5-3h1l4 2 1-2-5-2 1-1 3 2 1-1-4-2h1l3 1 2-3-3-1v-1l3 2 1-1-3-1 3 1v-1l-3-2 3 1 1-1v-1h1l1-1h-2v-1h2 0-2v-1h2l2-3h-1 1l1-1h-1l1-1h-1 1 1v-1h0-1-1 0 2v-1l1-2v-1l3-5h-1 1l-1-1h1v-1h-1v1-1h1l1 1 1-2h-1-1 0 1 1l5-11 7-11 5-10 2-4 1-2 1-1 5-9v-1l2-2 1-2v-1l2-2v-1l2-1v-1l3-4v-1l-2-1 2-5 1-2v1l1-2 2 1v-1h1l1-1 5-10 1-5 1-5 2-4 1-3-1-10v-1-1l1-1h1l1-1 2-1 1-1 1-1 1-2v-1l1-2 2-4 3-6 1-1 1-1v-1l1-1v-1h0l2-3v-1l1-1h0v-1h0v-1h0v-1h0v-1h0v-2h1v-1l1-2h0l1-2v-1l1-2h1l1-2h0l1-1zm218 0h1v0h-1v1h0zm-310 6v2l-3 1-2 3-1 7h1v-1h2v-1l2-1 1-4h1l1-2 1-1v0h-1l-1-1h1v-1h0v0h-1v-1zm285 19h0v1h0 0 0-1 0Zm1 1h0v1h0v-1zm-2 4h0 0l1 1h-1v1h0-1 0-1-1v1h0v-1-1-1l1 1v-1h1 0zm18 1h0 1 0l1 1h0l2 1v1 1l2 2h0l1 1 1 1h0v1h-1 0-1 0-1v1l-1 1h0-1v1 1 1 1l1 1-1 2h0v1l-1 1v1 1h1v1 1h1l1 1v1h-1-1 0l-1-1v-1l-1-1-1-1h0v-1-1h0l1-2-2-4h0 0v-1h0l1-1h-1v-1 0-1h0l1-1v-1-1h0v-1h0v-1l-1-1v-1-1 0-1-1zm-25 2h1l1 1v2 1 1 2h0l1 1h1 0l-1 1 2 2 2 1h1v1 1 1l1 1h0 1l1 2 1 2-2 1v2l-1 1v1 1 1l1 2 1 1 1 2v2l-1 1v2h-1l-1 1h0l-1 1v-1h-1l-1-1v-2-1h-1l-1-2-1-1-1-3-1-1v-1l-1-2-2-2v-1-2-1l1-1 1-1v-1-2-2l-2 1v-2h1l-1-3-1-1v-1h0v-1h0v-2h1l1-1v-1zm12 6h1v1l-1-1h0zm-311 4v0h0zm266 10h1v1h-1zm-265 6v2-1h1zm422 12-2 2h-1l1 1v-1h1v-1h1zm-319 15h0v2h0zm310 1h1v0h-1zm-48 0v1h0v2l2-2h-1l-1-1zm-462 2h-1v3-2h1zm2 0 1 1v-1zm0 1h-2l2 1zm-3 2h-1v1h0l-1 3 1-2zm64 3h1v1h-1 0zm-67 1h1v1-1zm169 0h1l-1 1-1-1zm-170 1-1 2v2l1-3h1v-1h0zm-2 4-1 6v1l-7 1-1 1 1 3h0v-3l7-1 2-3h-1v-3h1l-1-2zm-7 12v4h1v-2h-1v0h1zm509 1h1v0h-1zm-67 0h0v1h0zm69 3h0v1h0zm-511 1v0h1v1-1zm510 0h1v1zm-508 1h-1v1l2 1zm263 5v1-1zm136 3 2 1v1l-1-1-2-1zm-335 1 1 1v2h0l-1-1v-1zm154 1v2h0 0l-1-2zm42 3h1v1h1v1h0v1 1h-1l-1 1h-1 0v1h-1v-1h-1v-1 0-1l1-1h0v-1h1v-1zm-37 1h1 1 1 1 0 1v1l1 1h0l1 1v1l1 1 1 1h2l1 1h1v1h1v1l1 1v1l1 2h0v1 1l-1 1-1 1h0l-1 1-1 1v1h-1l-1 1h0v1l-3 3-2 3v1l-1 3-1 1-1 1-1 1h0-1-1l-1 2h-1-1l-3-2-2-1h0l-4-1h0l-1-1v-1-2l1-1v-1l1-1 1-2 1-2h1v-1l1-1 1-1h0l1-1h0 1v1h1 1 1l1 1-1-1h-1v-1h1v-1h-1 0-1v-1-1l2-2v-2-1h0v-1-1-1l-1-1h1v-1-2l1-1 1-2zm-146 0h1v2zm-16 3h0l1 1h1l-1 1h0v-1h-1 0zm-1 3h0 1zm2 0h0-1zm212 0h1 0l1 1 2 1 1 2h0 1v1h1l1 1h0 1 1 1l2 1h0l1 1h1l1 1 1 1h1v1h1l1 1h1l1 1v1l1 1v1 1 1h0v1 1h-1v1h-1l-1 1h0-1-1l-1 1h-1 0v-1h-1l-1 1h0-1-1 0 0-1-2l-2-1-2-1h0-1-1 0-1 0l-2-1h-1l-1-1v-1l-1-1v-2l-1-1h0-1-1 0v-1-1-1h0v-1-1h0v-1-1-1h0v-1l1-2h0l1-1v-1h1 1 1 0l1-1zm-219 2v1h0l1-1zm205 0 1 1h1v1h0l-1 1h-1v-1h0-1v-1h1zm-190 3h0 0zm1 0v1h1 0zm-101 11-2 1v4l-4 8-2-2-1-1-2-3h-1v-1h-1l-1 6 12 3-1 2-1-1v1l3 2v1h-1v1l2 2h2v4h-1l-4 11v2h0v1l-1 4h-1l-1 2h-2v1l3 2 2-2-3-1v0h3l1-2h1v-3h1l12-17h1l1-1h-2v-1h1v-1l4-5-7-8-1-1-3 1h1l-1-2h1l1 1h0v-1l-2-3h-1l-2-3h-3v1h1l-1 1h0v-2h-1 0 1zm15 4h0 0v1h1-1 0v-1h-1v1l-1 1h0l-1 1h0l-1 1h-1 0v1l2 2 1 1 1 1h0 0l1 1 1 2h1 0l1-1 2-2v-1l1-1h0-1 0-1-1-1-1v-2-1l1 1v1h0 1v1l1-1h0 0v-1h0 0 0 1 0 1 0-1v-1l-1-1-2-2v-1h-1 0 0 0zm-12 1h1v1h-1zm13 1h0v1 1h0v1 1h0v-1-1h0l-1-1 1 1-1-1 1-1zm1 0h0v1h0v-1h0zm-2 0v1h0l-1 1v-1h0 0zm-2 1 1 1h0 0-1zm-10 2v1h0zm13 1v1h0zm0 1h0 1v1h1 1 0 0v1h-1l-1-1h0-1 0-1v1h-1 0l1-1h0v-1zm-13 3v0h0zm350 0 1 1h-1 0zm-117 0v1h0 0v1h0 0-1l-1 1h0 0l1-2h0l1-1zm-72 3h0 0zm188 1h1 0-1zm-349 0h0v0h0Zm-1 4 1 1h-1Zm231 7h0 0v1 1 1 1h0l-1 1v1l-1 1h0l-1 1-2 2-1 3-3 3-3 5-1 1v1h-1v1l-1 1h0l-1 1h0v1 1h-1l-1 1-2 3-2 2v1l-2 2-1 1-1 1h-1v1h-1v1h-1v-1h1v-1-1l1-1h0l1-1v-1l1-1v-1l2-2 2-3 1-2 2-2v-1h1l1-2 1-1v-1l1-1 1-2 1-1 2-4 2-1v-2l1-1 1-1v-1h1 0v-1l1-1 1-1h0 1v-1h0 1 0zm113 4-1 1h0zm-356 12v0h1zm2 0-1 1h1zm48 40h1v0h-1zm-87 14h0 0zm145 57h1l2 2-1 1v1h-1v1l-3-3v1l2 2-1 1-1 1-3-2v-1l1-1h0l2-3 1 1zm31 13h2l2 1 2 2 1 1-1 3-1 2-2 2h-2l-9 5h-1 0-1-1-1l-1-2v-1l1-1 1-2 3-3 4-5v-1l1-1h0 1zm-39 4 2 1h1v1 1 1h0-1-1 0l-2-1v-1h-1-1 1 1l-1-1v-1h0zm-138 51v1h0zm42 18v0h1Zm1 1v1h0zm0 1v1-1zm306 2-1 1v0h0l2 3h1l1 3 1 1v-2-2zm-264 1h0l1 1h0 1 1 1 0 1 0 1 0 1 1 0l2 1 1 1h0 0l1 1h0l1 1v1h1v1h1 0v-1h1v1-1 1h1-1 1l-1 1h1l1-1h0l-1 1 1-1v1h1l-1 1h1l-1 1v1h1-2 3l-4 1v1l4-1-4 1v1h1 3-4v1h0v3h5v1h-4v1h-1v1l3-1v1h-3v3 3 2 1 3l7 3-7-3 1 3v1h0v1h0v1 1 1 2l1 1 1 2 1 3 2 1 3 3 1-1-1 1 1-1v1l-1 1h1v1h1 0l1-1-1 1 1 1h0 0l1 1 1 2 1 1 1 1h0v1l1 1v1 1h0 1l-1-1h1v1 1h0l1 1v1l1 1 1 1h0l1 1v2l1 1 1 1h0 1-1 1l1 1v1 1 1l1 1v1 2h0v1 1 1l1 1h0-1-1l-1 1-3 5-2 1-2 3-1 1-2 3-1 1-2 2-1 1h0l1 2h-1 0l-1 1-2 1-3 5-2 1v1l-1 1 1 2-1-1h0l-1 1-2 2-1 2h0 0l1 1h0 1l-3-1h0v2h0-1 0l-1 1h0l-2 2-1 1v1-1l-2 1-1 1-1 1-1 2-1 1-1 1-1 1-2 3-1 1 1 1-1-1-1 1-1 1-1 1h-1 0-1l-2 4-3 4-1-1h0l-1 1-1 1v2l-2 2v1h0-1-1 0l-1 1-1 2-1 2v1l1 1-2-1h-1l-2 4v1l-2-2h-1 0l-2 1v1l-1 1-1 1-4 7h-1 0-2v1h-1 0-1 0l-2 1-1 1v1 1l-2 1v-1h-1-1l-1 1h-1l-1 2-2 4-6 9-2 4-4 5-1 1-1 1-2 1v-1h-1 0-1 0v-1h-1v-2l-1-4-1-1v-1l1-1h0 3 3 2l1-1h1l4-6 1-1 2-1v-1-2-2l-1-2-2-3-2-1h-2-2l-2 1h-1 0 0l-1 1-1-1v1l-1 1-2 2h0 0v1l-1 1v-1h-1l1 1-1 1h0l-1 1 1 3h0v1h-1l1 1-1 1 2 1-1 1h-2-1 0v1l-1 1h-1 0l-1 1h0l-2 1-2 1-1 1h0l-1 2h-1 0-1v1l-2 1v1l-1 1h-1l-1 1-1 1h0l-1 1h-1v1h-1l-1 1h-1 0-1l-1 1-1-1v1h-1-1v1h-1l-1 1h0l-1 1-2 1h0l-1 1-1 1-2 1v-1h-1 0-1-1l-1 2-1 1-2 1-2 2-1 1h0 0l-1-1h-1v-1h-1-2 0 0l-1 1h-1-1v1h0-1 0l-1 1-1 1-1 1-1 1-2 2v1 1l-1-1v1l-2 2v1h-1v1l-1 1-1 1-1 1h0l-1 2h-1-1-1l-1-1-1-1-2-1v-1h0 1 0v-1h-1 0v0l-1-1-1 1-4 1h-1-3l-1 1-2 1-1 1v1l-1 2h0l-2 2-1 1v1h-1l-1 1h-1l-1 1-1 3h-1 0l-3 1h-1l-1 1h0-1-2 0l-2 1h-1l-1-1h-3l-2 1h-1l-2 1-1 1h-1-2l-1 1h-1l-1 2h-1l-1 1-1 1h-1-2v1l-1-1h-1l-1 1h-1l-2 2h0-1-1-1l-1-1-1-1-1-1v-1h0v-1h-1v-1h-1l-1-1v-1l-1-1v-1l-1-1-1-2v-1-1-3-1l-1-1 1-1v-1h1l1-1h0l1-1v-3h0v-1l1-2h0v-1l1-1h0 0 1v-1h1 0v-1l1 1v-1l1-1 1-1 1 1h0 1 0 1-1v-1l-1-1-1-1 1 1 1 1v-1h2l-1-1v-1h1 0 1 1 0 1 0l1-1h0v-1 1l1-1h1 0 0 0l1-1h0l-1-1h0l-1-1v1l-1-1h0-1 0v-1-1h0v-1h0v-2h0l-1-1v-1h-1 1v-1-1l1-2v-1h0v-1h0v-1h1v-1h-1 1v-1h0v-1h0 1v-1l-1-1v-1h-2 2v-1l1-1h-1 0v-1h0v-1h-1v-1h0l-1-1h0-1v-1h0v-1h0-1 0 0 0v-1h0 1l-1-1 1-1h-1 0v-1l-1-1v0-1-1h0l-1-2h0l-1-1-1-1h0v-1l2-3 4-4 1 1h0l1 1h0l1-1h1l1-1 1-1v-1h1v-1h0l1-1h0 1l1-1h0v-1l-1-1 1-1 1-1 2 1h1v-1h1v-1h0l1-2h1v-1h1l1-1h0 1v-1h0 1 0 1 1 1 0 1v1l1-1 2 1v1h1l1-1h0 1l1 2h1v-1h0v-1 2h1v-2h0l1 2 4-3h0v-1h0l1 1 1-1v-1l1-2 1-1v-1-1h1v-2-1l-1-2 1-4 1-2 1-3 1-1v-1 0-1h0l1-1 1-1h0l1-1h1 0 2l3-1 2-1 1-1 1-2 1-5h0v-1h1 0 1 1l4 2 1 1h0l1 1 1-1h1 0 0v-2h-1-1l-1-1-2-2-1-1h-2l-1-1h-2-1-3-1-2-1 0 0l-2 1h0v-1-1l1-1h0v-1-1-1h1v-1-1h0v-1-4-1-1h0v-1h0v-1-1h0l1-1v1l1-1h0 1v-1h0-1 1 0v-1h0 0 0l1-1v-1h0 0 1 0v0-1l1-1h1v-1-1h1 0v-1-1h1v-1h1 0l-1-1 1-1-1-1 1-1v1-1-1-1-1h0v-1h1v-1h-1 1v-1h-1l1-1v1-1-1l-1-3-1-1v-1l-1-1h0v-1-1h0l1-2 1-2 1-2 1-1v-1-2h1l-1-1h0 0l-1-1v-1h0l-1-1h0-1v-1h-1-1l-1-1h-1 0v-1h0l1-1-1-1h0v-2h0v-1 1-1h0 0v-1l-1-1v-1h0 0v-1h0v-1h0l1-1h0v-1-1h0v-1h-1v-1-2l1-2v-1-4h1l1-1v-1h1 0l1-1h1v-1l1-1v-1l1-1 1-1h1v-1h-1v-1-1l1 1v-1l2-2 3-2v-1l2-2 4-3v-1l2-1v1l1 1 1 1-1-1v-2l1-1h2l1 1v-1 1h2v-1h0v2 1l1 1h1 0l1-1h1 0 1 0v-1h0v-1-1h1 1 0l1 1h1v1 1h0l1 1 1-1-1 1v1h1l1 1h0l2-4h0l-1 3h1 0l1 1h1 1 0 0l1-1v1l1 1v-2h0v3h1v-2 2l1 1v-2 2h0l1-2h0 1 0l1 1-1 3h1v-1 1h0l1-1v1h1v-2 2h0l1 1h0v1-2l1 1h0 0 1v-1 1h2v1h1v-3 3h1v-3h0v2h1v1 1h1 0 1v-1h1l-1-2h1v2h1v-3 1h1l1 1h0v1h1v-1-1h0 2l2-1h1 1l1 1h0v-1l1-1v1h1v-1-1h1 1 0 1 0l1-1h1 0 1 0 1 0l1-1h0 1 1 1 1 1 0 1 1v1l2 1v-2 2h1 0v-1l1 1h0l1 1h1v-1h0 1v1h1l1-1v1h1v-1h1l1-1v1-1-1h0 1 0 1v1-1-1l1 2h0l1-1v-1 1h1l-1-1 1 1h0v-2l1 2h0 1 0v-1h0 1l-1-2 1 2h0v-2l1 2h0v-2 2l1-1h0l-1-1 2-1h0l-1 2 2-2h-1 1l1-1-1 1 1-1-1 1h0l2-1h1v-1h0 0 0 1 0l1-1h0 1 0 1 2 0 1 1 1 0 1 0 0 2 0 1 0l1 1h1 1 0 1v-1h2 2 2l2-1h1l3-2h1 1v-1h0l1-1h1 0 1v-1h1zm-47 1v1l1-1zm-57 5h1 0l1 1h0v1h1v-1h0 1l1 3h0v1 0l-1 1h0l-1 1h0-1-1-1v-3-1h0v-1h0v-1h0zm377 2 1 1v-1zm-1 1h1v0Zm-384 1v1h-1v1h0v-1zm647 7-2 1v2l1-1v-1h1zm-211 1v1h-1v1h1l-2 2h-1v-2h1v-1zm209 2v1h0v4h0v-3h1zm-698 8h-1v1 0h1zm558 1h0v1h-1zm-561 1h-1l2 1v-1zm397 0h-1-1v1 1h1l13 8v1h3v1l4 1-1 2 2 1-1 1h2l-1 1h6v-1l1-1-9-5-1 1 1-1h-2v-1l-2-1v-1l-13-7-1-1h0zm79 0h2 2l1 1h-1l-2 1v1h-1v-3h-1zm-468 0-2 1v2h1v-2h1Zm549 1h0v1h0zm73 5h-1 1zm72 0-1 1h0 1v0h2zm-238 1h1 1v2 1 1h0l-1 1h0v1h-1v2 1h1v1l1 1v1 1 1 2l-1 1h0l-1 1h0-1-1v1h-1-1-1 0l-2 1-2 1h-1l-2 1h-2l-2-1h-1v-1l-1-1v-1-1-2l1-1v-1l1-1 1-1 2-1v-1l1-1 1-1 1-1 2-1 1-1h1l1-1 4-3h1zm237 1h1v0zm-164 2h1v1h0v1h-1l-1 2v-2h-1v-1h2zm15 1h4 0v1h0-1v1h-1-2 0v1l1 1h-1-1v2l-1 3h-2v1h3v2h-1v1h-1l1 2h-1v2l-1-1v-1h-1l1-1-2-3h2v-1l-2-1v-5l3-3h1zm2 1v1-1zm-17 2h2v1h-2zm29 1v1h-1zm149 0v1h0-1zm-12 1h1 0Zm-1 1h-1 1 0 1zm-153 2v1l1-1zm-550 1-4 1v1l2-1v0l4 1 1-1zm694 0h0v1h0zm-119 1h0v3h1l2 5 2 1 1 3-2 2-4 1-1 1h-1l-1 1-1 1-2 1v1l-1 1-1 1v-1-2h0l-1-1h2l2-1-1-2v-2l2-1h1l3-2v-2-1l-1-6zm-579 1v1h1zm524 7h-1v1l2 1zm176 0h1l1 2h1v3l-4-1v1-2l1-1h0zm-681 2v1 1 1 1l-1 1-1 2-1 2v4l1 1v1 1h1v2l1 1h-1v1h1 0v1h0v1l-1-1-1-1h0v-1l-1-1-1-1-1-1v-1-2l-1-1v-1-1-2h0l1-1v-1-2h0v-1-1-1h1 0 1 0 1zm503 0h1v2h-1zm182 3h0v1h0Zm-5 1v1h0Zm2 2h2v6h-1v2h-2l-6 4v1l-4 1v-1h1v-3l2-1v-1h4v-2l-1-1 4-2 1-1h0Zm16 0-1 1h1zm-2 1v2l2 1v0h3v-1l-5-1zm-26 3h0l1 2h-1v0h0zm-6 1h0 0zm20 1h1v1h-1zm-23 0v1h1v-1zm2 2-1 5h1l-1 3-1-1h-3v2-1l3-1 1 2 2-2v-3l-2 1 1-4h0v0h1zm21 0 1 1h0v0h-1Zm-164 4 6 1v1h0v1h0l1 5-1 1-1 1h-1l-2-3-1-1zm-607 1v1l6 1v1l5 1 1 1 7 2v1h9l2-1 1 1 4-5h3l1 5h1l1-1-1-1-2-4h-5l-1 3h-1l-3 2-8-1v-1l-7-1-2-1-4-1-1-1zm0 1-2 1-2 5H4 2l1 1h1l2-1 3-5h0v0h1zm717 0v2h-1v-1zm-173 1 10 1 1 1 1 2 4 3h-2l-1 3-8 2-3-2-3-3-1-3h-1v-1h1v-2h1v0zm199 2v0h0l1 2 1-2zm7 1h0l-1 1h2zm-9 0-3 1v1h-1l-1 3 5-4zm34 1v1h1v-1h1zm-34 0 2 1v-1zm-1 0v1h1zm-274 1h0l1 1 2 1h0 1v1l1 1 1 2h0l2 4v1 1 1h1-1l-1 1h-1-1l-1-1-1-1v-2l-2-2h0l-2-2h-2l-1-2h0v-1l-1-1 1-1 2-1zm-446 0h0v0h0zm-30 0v1h1 1l-1-1Zm52 1h-1v1h0v-1h1zm676 0h-1 1zm17 0v1l1-1zm45 1 1 1v-1zm-110 1h-1 1Zm66 0v1l1 1zm44 0h-1v1zm-1 1h-1v1h0zm-116 0v0h1zm74 1v3h1v-1h-1v0h1zm-164 1h5l1 4h1v1l-5 2 1-1-7-2v-1h0l1-1zm154 0h0v0zm-7 0 5 2 1 2-10-2v-1zm-107 0-1 1h0zm28 0h0v1h0zm-59 9h1 0-1zm-1 0h1v1h-1zm2 1v1h-2v-1zm-5 0 1 2h-2v0h-1v-1zm3 2v0 1h-1v-1zm-224 4h0 1zM91 599h0 1l-1 1h1 1 1v1 1h0v3 1 1 1l-1 1-1 1h-1-2l-1-1-1 1h-1-1v-1-1-1h0v-1h1l-1-1h0l1-1h0v-1h0 0l1-2h0l1-1h0v-1l1 1v-1h1zm297 16h1v1h0v1h-1z" />
    </g>
</svg>